<mxfile host="app.diagrams.net" modified="2020-03-24T02:09:16.290Z" agent="Mozilla/5.0 (Windows NT 6.2; Win64; x64) AppleWebKit/537.36 (KHTML, like Gecko) Chrome/77.0.3865.120 Safari/537.36" etag="uzyy3r2Gt9XcjlrZ3BTj" version="12.8.8" type="github">
  <diagram id="C5RBs43oDa-KdzZeNtuy" name="Page-1">
    <mxGraphModel dx="1414" dy="754" grid="1" gridSize="10" guides="1" tooltips="1" connect="1" arrows="1" fold="1" page="1" pageScale="1" pageWidth="1169" pageHeight="827" math="0" shadow="0">
      <root>
        <mxCell id="WIyWlLk6GJQsqaUBKTNV-0" />
        <mxCell id="WIyWlLk6GJQsqaUBKTNV-1" parent="WIyWlLk6GJQsqaUBKTNV-0" />
        <mxCell id="6ws-VXe0_fXa5yS6lifG-88" style="edgeStyle=orthogonalEdgeStyle;rounded=0;orthogonalLoop=1;jettySize=auto;html=1;exitX=0.5;exitY=1;exitDx=0;exitDy=0;entryX=0.5;entryY=0;entryDx=0;entryDy=0;startArrow=none;startFill=0;endArrow=classic;endFill=1;fontSize=18;fontColor=#FF0000;" parent="WIyWlLk6GJQsqaUBKTNV-1" source="zMW9WFN-JFGp6brwClAm-83" target="zMW9WFN-JFGp6brwClAm-128" edge="1">
          <mxGeometry relative="1" as="geometry" />
        </mxCell>
        <mxCell id="6ws-VXe0_fXa5yS6lifG-125" style="edgeStyle=orthogonalEdgeStyle;rounded=0;orthogonalLoop=1;jettySize=auto;html=1;exitX=1;exitY=0.5;exitDx=0;exitDy=0;entryX=0;entryY=0.5;entryDx=0;entryDy=0;startArrow=none;startFill=0;endArrow=classic;endFill=1;fontSize=2;fontColor=#FF0000;dashed=1;" parent="WIyWlLk6GJQsqaUBKTNV-1" source="zMW9WFN-JFGp6brwClAm-83" target="6ws-VXe0_fXa5yS6lifG-124" edge="1">
          <mxGeometry relative="1" as="geometry" />
        </mxCell>
        <mxCell id="zMW9WFN-JFGp6brwClAm-83" value="進ERP系統填&lt;br&gt;&lt;font color=&quot;#0000ff&quot;&gt;工務服務單登錄作業&lt;/font&gt;" style="rounded=1;whiteSpace=wrap;html=1;fillColor=#fff2cc;strokeColor=#d6b656;arcSize=18;" parent="WIyWlLk6GJQsqaUBKTNV-1" vertex="1">
          <mxGeometry x="275" y="170" width="120" height="60" as="geometry" />
        </mxCell>
        <mxCell id="zMW9WFN-JFGp6brwClAm-89" value="現場&lt;br&gt;建工單人員" style="text;html=1;strokeColor=#d6b656;fillColor=#fff2cc;align=center;verticalAlign=middle;whiteSpace=wrap;rounded=0;strokeWidth=3;" parent="WIyWlLk6GJQsqaUBKTNV-1" vertex="1">
          <mxGeometry x="245" y="99" width="80" height="40" as="geometry" />
        </mxCell>
        <mxCell id="zMW9WFN-JFGp6brwClAm-90" value="前研開發" style="text;html=1;strokeColor=#82b366;fillColor=#d5e8d4;align=center;verticalAlign=middle;whiteSpace=wrap;rounded=0;strokeWidth=3;" parent="WIyWlLk6GJQsqaUBKTNV-1" vertex="1">
          <mxGeometry x="730" y="99" width="100" height="20" as="geometry" />
        </mxCell>
        <mxCell id="zMW9WFN-JFGp6brwClAm-91" value="" style="strokeWidth=2;html=1;shape=mxgraph.flowchart.annotation_2;align=left;labelPosition=right;pointerEvents=1;" parent="WIyWlLk6GJQsqaUBKTNV-1" vertex="1">
          <mxGeometry x="140" y="170" width="20" height="415" as="geometry" />
        </mxCell>
        <mxCell id="zMW9WFN-JFGp6brwClAm-96" value="實際停機時間" style="text;html=1;strokeColor=#B20000;fillColor=#e51400;align=center;verticalAlign=middle;whiteSpace=wrap;rounded=0;fontColor=#ffffff;" parent="WIyWlLk6GJQsqaUBKTNV-1" vertex="1">
          <mxGeometry x="90" y="343.5" width="35" height="68" as="geometry" />
        </mxCell>
        <mxCell id="zMW9WFN-JFGp6brwClAm-97" style="edgeStyle=orthogonalEdgeStyle;rounded=0;orthogonalLoop=1;jettySize=auto;html=1;exitX=0.5;exitY=1;exitDx=0;exitDy=0;entryX=0.5;entryY=0;entryDx=0;entryDy=0;" parent="WIyWlLk6GJQsqaUBKTNV-1" source="zMW9WFN-JFGp6brwClAm-128" target="zMW9WFN-JFGp6brwClAm-100" edge="1">
          <mxGeometry relative="1" as="geometry" />
        </mxCell>
        <mxCell id="zMW9WFN-JFGp6brwClAm-100" value="刷QRCode+填完工說明&amp;nbsp;&lt;br&gt;(維修時間(迄))" style="rounded=1;whiteSpace=wrap;html=1;fillColor=#dae8fc;strokeColor=#6c8ebf;" parent="WIyWlLk6GJQsqaUBKTNV-1" vertex="1">
          <mxGeometry x="265" y="525" width="140" height="60" as="geometry" />
        </mxCell>
        <mxCell id="zMW9WFN-JFGp6brwClAm-101" value="" style="strokeWidth=2;html=1;shape=mxgraph.flowchart.annotation_2;align=left;labelPosition=right;pointerEvents=1;" parent="WIyWlLk6GJQsqaUBKTNV-1" vertex="1">
          <mxGeometry x="225" y="420" width="20" height="165" as="geometry" />
        </mxCell>
        <mxCell id="zMW9WFN-JFGp6brwClAm-102" value="維修&lt;br&gt;時間" style="text;html=1;strokeColor=#C73500;fillColor=#fa6800;align=center;verticalAlign=middle;whiteSpace=wrap;rounded=0;direction=south;fontColor=#ffffff;" parent="WIyWlLk6GJQsqaUBKTNV-1" vertex="1">
          <mxGeometry x="176" y="474.63" width="38" height="55.75" as="geometry" />
        </mxCell>
        <mxCell id="zMW9WFN-JFGp6brwClAm-114" value="&lt;span style=&quot;white-space: nowrap&quot;&gt;&lt;font color=&quot;#0000ff&quot;&gt;顯示欄位:&lt;/font&gt;&lt;br&gt;&lt;/span&gt;&lt;div style=&quot;white-space: nowrap&quot;&gt;1.申請人&lt;/div&gt;&lt;div style=&quot;white-space: nowrap&quot;&gt;2.設備類別&lt;/div&gt;&lt;div style=&quot;white-space: nowrap&quot;&gt;3.作業類別&lt;/div&gt;&lt;div style=&quot;white-space: nowrap&quot;&gt;4.設備編號&lt;/div&gt;&lt;div style=&quot;white-space: nowrap&quot;&gt;5.實際停機期間&lt;/div&gt;&lt;div style=&quot;white-space: nowrap&quot;&gt;6.資產編號&lt;/div&gt;&lt;div style=&quot;white-space: nowrap&quot;&gt;7.資產名稱&lt;/div&gt;&lt;div style=&quot;white-space: nowrap&quot;&gt;8.異常現象代碼+名稱&lt;/div&gt;&lt;div style=&quot;white-space: nowrap&quot;&gt;9.故障情形說明&lt;/div&gt;" style="ellipse;whiteSpace=wrap;html=1;rounded=0;shadow=0;glass=0;comic=0;fillColor=#d5e8d4;strokeColor=#82b366;align=center;" parent="WIyWlLk6GJQsqaUBKTNV-1" vertex="1">
          <mxGeometry x="695" y="238.5" width="170" height="170" as="geometry" />
        </mxCell>
        <mxCell id="zMW9WFN-JFGp6brwClAm-120" style="edgeStyle=orthogonalEdgeStyle;rounded=0;orthogonalLoop=1;jettySize=auto;html=1;exitX=0.5;exitY=1;exitDx=0;exitDy=0;" parent="WIyWlLk6GJQsqaUBKTNV-1" source="zMW9WFN-JFGp6brwClAm-132" target="zMW9WFN-JFGp6brwClAm-132" edge="1">
          <mxGeometry relative="1" as="geometry" />
        </mxCell>
        <mxCell id="zMW9WFN-JFGp6brwClAm-128" value="設備人員刷QRCode&lt;br&gt;&lt;span style=&quot;color: rgb(0 , 0 , 255)&quot;&gt;工務服務單&lt;/span&gt;&lt;font color=&quot;#0000ff&quot;&gt;核准作業&lt;/font&gt;完成&amp;nbsp;&amp;nbsp;&lt;br&gt;(維修時間(起))" style="rounded=0;whiteSpace=wrap;html=1;fillColor=#dae8fc;strokeColor=#6c8ebf;" parent="WIyWlLk6GJQsqaUBKTNV-1" vertex="1">
          <mxGeometry x="263.75" y="421.5" width="142.5" height="60" as="geometry" />
        </mxCell>
        <mxCell id="zMW9WFN-JFGp6brwClAm-133" value="" style="endArrow=classic;dashed=1;html=1;endFill=1;entryX=0;entryY=0.5;entryDx=0;entryDy=0;startArrow=none;startFill=0;exitX=1;exitY=0.5;exitDx=0;exitDy=0;" parent="WIyWlLk6GJQsqaUBKTNV-1" source="zMW9WFN-JFGp6brwClAm-128" target="zMW9WFN-JFGp6brwClAm-135" edge="1">
          <mxGeometry width="50" height="50" relative="1" as="geometry">
            <mxPoint x="335" y="455.51" as="sourcePoint" />
            <mxPoint x="712" y="456" as="targetPoint" />
            <Array as="points" />
          </mxGeometry>
        </mxCell>
        <mxCell id="zMW9WFN-JFGp6brwClAm-134" value="上傳資料" style="text;html=1;align=center;verticalAlign=middle;resizable=0;points=[];labelBackgroundColor=#ffffff;" parent="zMW9WFN-JFGp6brwClAm-133" vertex="1" connectable="0">
          <mxGeometry x="0.5784" y="1" relative="1" as="geometry">
            <mxPoint x="-47.919999999999995" y="0.9999999999999949" as="offset" />
          </mxGeometry>
        </mxCell>
        <mxCell id="6ws-VXe0_fXa5yS6lifG-130" style="edgeStyle=orthogonalEdgeStyle;rounded=0;orthogonalLoop=1;jettySize=auto;html=1;exitX=1;exitY=0.5;exitDx=0;exitDy=0;entryX=0;entryY=0.5;entryDx=0;entryDy=0;startArrow=none;startFill=0;endArrow=classic;endFill=1;fontSize=2;fontColor=#FF0000;" parent="WIyWlLk6GJQsqaUBKTNV-1" source="zMW9WFN-JFGp6brwClAm-135" target="6ws-VXe0_fXa5yS6lifG-99" edge="1">
          <mxGeometry relative="1" as="geometry" />
        </mxCell>
        <mxCell id="zMW9WFN-JFGp6brwClAm-135" value="維修&lt;br&gt;時間(起)" style="ellipse;whiteSpace=wrap;html=1;rounded=0;shadow=0;glass=0;comic=0;fillColor=#d5e8d4;strokeColor=#82b366;" parent="WIyWlLk6GJQsqaUBKTNV-1" vertex="1">
          <mxGeometry x="750" y="421.5" width="60" height="60" as="geometry" />
        </mxCell>
        <mxCell id="zMW9WFN-JFGp6brwClAm-136" value="" style="endArrow=classic;dashed=1;html=1;endFill=1;entryX=0;entryY=0.5;entryDx=0;entryDy=0;startArrow=none;startFill=0;exitX=1;exitY=0.5;exitDx=0;exitDy=0;" parent="WIyWlLk6GJQsqaUBKTNV-1" source="zMW9WFN-JFGp6brwClAm-100" target="6ws-VXe0_fXa5yS6lifG-35" edge="1">
          <mxGeometry width="50" height="50" relative="1" as="geometry">
            <mxPoint x="335.7600000000002" y="615.5" as="sourcePoint" />
            <mxPoint x="705" y="615" as="targetPoint" />
            <Array as="points">
              <mxPoint x="500" y="555" />
            </Array>
          </mxGeometry>
        </mxCell>
        <mxCell id="zMW9WFN-JFGp6brwClAm-137" value="上傳資料" style="text;html=1;align=center;verticalAlign=middle;resizable=0;points=[];labelBackgroundColor=#ffffff;" parent="zMW9WFN-JFGp6brwClAm-136" vertex="1" connectable="0">
          <mxGeometry x="0.5784" y="1" relative="1" as="geometry">
            <mxPoint x="-47.00000000000001" y="1.58" as="offset" />
          </mxGeometry>
        </mxCell>
        <mxCell id="zMW9WFN-JFGp6brwClAm-159" value="&lt;span lang=&quot;EN-US&quot; style=&quot;font-size: 16px&quot;&gt;設備部維修刷QRC&lt;span class=&quot;926482506-07022020&quot; style=&quot;font-size: 16px&quot;&gt;ode紀錄系統&amp;nbsp;&lt;/span&gt;&lt;/span&gt;Ver 1.0&lt;br style=&quot;font-size: 16px&quot;&gt;2020-03-12" style="text;html=1;align=left;verticalAlign=middle;resizable=0;points=[];autosize=1;fontSize=16;" parent="WIyWlLk6GJQsqaUBKTNV-1" vertex="1">
          <mxGeometry x="80" y="30" width="290" height="40" as="geometry" />
        </mxCell>
        <mxCell id="zMW9WFN-JFGp6brwClAm-161" value="設備&lt;br&gt;刷QRCode人員" style="text;html=1;strokeColor=#6c8ebf;fillColor=#dae8fc;align=center;verticalAlign=middle;whiteSpace=wrap;rounded=0;strokeWidth=3;" parent="WIyWlLk6GJQsqaUBKTNV-1" vertex="1">
          <mxGeometry x="340" y="99" width="101" height="40" as="geometry" />
        </mxCell>
        <mxCell id="zMW9WFN-JFGp6brwClAm-132" value="&lt;span style=&quot;text-align: left ; white-space: nowrap&quot;&gt;通知刷條碼人員的上級&lt;/span&gt;&lt;span style=&quot;text-align: left ; white-space: nowrap&quot;&gt;&lt;br&gt;系統發出 Email&lt;br&gt;&lt;/span&gt;&lt;span style=&quot;text-align: left ; white-space: nowrap&quot;&gt;(超過2小時-課長 4小時-副理)&lt;/span&gt;&lt;span style=&quot;text-align: left ; white-space: nowrap&quot;&gt;&lt;br&gt;&lt;/span&gt;" style="rounded=0;whiteSpace=wrap;html=1;fillColor=#f8cecc;strokeColor=#b85450;" parent="WIyWlLk6GJQsqaUBKTNV-1" vertex="1">
          <mxGeometry x="480" y="479" width="160" height="48" as="geometry" />
        </mxCell>
        <mxCell id="6ws-VXe0_fXa5yS6lifG-116" style="edgeStyle=orthogonalEdgeStyle;rounded=0;orthogonalLoop=1;jettySize=auto;html=1;exitX=1;exitY=0.5;exitDx=0;exitDy=0;startArrow=none;startFill=0;endArrow=classic;endFill=1;fontSize=2;fontColor=#FF0000;" parent="WIyWlLk6GJQsqaUBKTNV-1" source="6ws-VXe0_fXa5yS6lifG-35" target="6ws-VXe0_fXa5yS6lifG-103" edge="1">
          <mxGeometry relative="1" as="geometry" />
        </mxCell>
        <mxCell id="6ws-VXe0_fXa5yS6lifG-35" value="維修&lt;br&gt;時間(迄)" style="ellipse;whiteSpace=wrap;html=1;rounded=0;shadow=0;glass=0;comic=0;fillColor=#d5e8d4;strokeColor=#82b366;" parent="WIyWlLk6GJQsqaUBKTNV-1" vertex="1">
          <mxGeometry x="750" y="527" width="60" height="60" as="geometry" />
        </mxCell>
        <mxCell id="6ws-VXe0_fXa5yS6lifG-117" style="edgeStyle=orthogonalEdgeStyle;rounded=0;orthogonalLoop=1;jettySize=auto;html=1;exitX=1;exitY=0.5;exitDx=0;exitDy=0;startArrow=none;startFill=0;endArrow=classic;endFill=1;fontSize=2;fontColor=#FF0000;" parent="WIyWlLk6GJQsqaUBKTNV-1" source="6ws-VXe0_fXa5yS6lifG-68" target="6ws-VXe0_fXa5yS6lifG-103" edge="1">
          <mxGeometry relative="1" as="geometry" />
        </mxCell>
        <mxCell id="6ws-VXe0_fXa5yS6lifG-68" value="完工說明" style="ellipse;whiteSpace=wrap;html=1;rounded=0;shadow=0;glass=0;comic=0;fillColor=#d5e8d4;strokeColor=#82b366;" parent="WIyWlLk6GJQsqaUBKTNV-1" vertex="1">
          <mxGeometry x="750" y="600" width="60" height="60" as="geometry" />
        </mxCell>
        <mxCell id="6ws-VXe0_fXa5yS6lifG-48" value="&lt;div style=&quot;text-align: center&quot;&gt;&lt;span style=&quot;white-space: nowrap&quot;&gt;取得欄位&lt;/span&gt;&lt;/div&gt;&lt;div&gt;&lt;span style=&quot;white-space: nowrap&quot;&gt;1.單據號碼&lt;/span&gt;&lt;/div&gt;&lt;div style=&quot;white-space: nowrap&quot;&gt;2.申請人&lt;/div&gt;&lt;div style=&quot;white-space: nowrap&quot;&gt;3.設備類別&lt;/div&gt;&lt;div style=&quot;white-space: nowrap&quot;&gt;4.作業類別&lt;/div&gt;&lt;div style=&quot;white-space: nowrap&quot;&gt;5.設備編號&lt;/div&gt;&lt;div style=&quot;white-space: nowrap&quot;&gt;6.實際停機期間&lt;/div&gt;&lt;div style=&quot;white-space: nowrap&quot;&gt;7.資產編號&lt;/div&gt;&lt;div style=&quot;white-space: nowrap&quot;&gt;8.資產名稱&lt;/div&gt;&lt;div style=&quot;white-space: nowrap&quot;&gt;9.異常現象代碼+名稱&lt;/div&gt;&lt;div style=&quot;white-space: nowrap&quot;&gt;10.故障情形說明&lt;/div&gt;" style="rounded=0;whiteSpace=wrap;html=1;labelBackgroundColor=#ffffff;fillColor=#ffffff;gradientColor=none;align=left;spacingLeft=6;" parent="WIyWlLk6GJQsqaUBKTNV-1" vertex="1">
          <mxGeometry x="480" y="170" width="160" height="170" as="geometry" />
        </mxCell>
        <mxCell id="6ws-VXe0_fXa5yS6lifG-1" value="請設備人員&lt;br&gt;確認?" style="text;html=1;align=center;verticalAlign=middle;resizable=0;points=[];autosize=1;fontColor=#FF0000;fontSize=15;labelBackgroundColor=#FFFFFF;labelBorderColor=none;spacingTop=0;spacingRight=0;fillColor=#ffffff;" parent="WIyWlLk6GJQsqaUBKTNV-1" vertex="1">
          <mxGeometry x="606" y="204" width="90" height="40" as="geometry" />
        </mxCell>
        <mxCell id="6ws-VXe0_fXa5yS6lifG-50" value="&lt;div&gt;需要建立資料的作業&lt;/div&gt;&lt;div&gt;類別代碼? (排除外修)&lt;/div&gt;" style="rounded=0;whiteSpace=wrap;html=1;labelBackgroundColor=#ffffff;fillColor=#ffffff;gradientColor=none;align=left;spacingLeft=6;" parent="WIyWlLk6GJQsqaUBKTNV-1" vertex="1">
          <mxGeometry x="480" y="340" width="160" height="40" as="geometry" />
        </mxCell>
        <mxCell id="6ws-VXe0_fXa5yS6lifG-87" value="&amp;nbsp;ERP同步RETEK&amp;nbsp;&amp;nbsp;" style="text;html=1;align=center;verticalAlign=middle;resizable=0;points=[];autosize=1;fontSize=18;gradientColor=none;fillColor=#f5f5f5;strokeColor=#666666;gradientDirection=south;strokeWidth=3;" parent="WIyWlLk6GJQsqaUBKTNV-1" vertex="1">
          <mxGeometry x="480" y="99" width="160" height="30" as="geometry" />
        </mxCell>
        <mxCell id="6ws-VXe0_fXa5yS6lifG-91" value="請設備人員&lt;br&gt;確認?" style="text;html=1;align=center;verticalAlign=middle;resizable=0;points=[];autosize=1;fontColor=#FF0000;fontSize=15;labelBackgroundColor=#FFFFFF;labelBorderColor=none;spacingTop=0;spacingRight=0;fillColor=#ffffff;" parent="WIyWlLk6GJQsqaUBKTNV-1" vertex="1">
          <mxGeometry x="606" y="346" width="90" height="40" as="geometry" />
        </mxCell>
        <mxCell id="6ws-VXe0_fXa5yS6lifG-99" value="&lt;font color=&quot;#0000ff&quot;&gt;工務服務單核准作業&lt;/font&gt;&lt;br&gt;實際停機期間&lt;br&gt;+&lt;br&gt;&lt;span style=&quot;color: rgb(0 , 0 , 255)&quot;&gt;工務服務單完工登陸作業&lt;/span&gt;&lt;br&gt;維修時間(起)" style="rounded=1;whiteSpace=wrap;html=1;fillColor=#d5e8d4;strokeColor=#82b366;" parent="WIyWlLk6GJQsqaUBKTNV-1" vertex="1">
          <mxGeometry x="890" y="408.5" width="150" height="86" as="geometry" />
        </mxCell>
        <mxCell id="6ws-VXe0_fXa5yS6lifG-101" value="回寫&lt;br&gt;ERP資料" style="text;html=1;fontSize=2;" parent="WIyWlLk6GJQsqaUBKTNV-1" vertex="1">
          <mxGeometry x="820" y="414" width="60" height="23" as="geometry" />
        </mxCell>
        <mxCell id="6ws-VXe0_fXa5yS6lifG-103" value="&lt;font color=&quot;#0000ff&quot;&gt;工務服務單完工登陸作業&lt;/font&gt;&lt;br&gt;維修時間(迄)&lt;br&gt;+&lt;br&gt;完工說明" style="rounded=1;whiteSpace=wrap;html=1;fillColor=#d5e8d4;strokeColor=#82b366;" parent="WIyWlLk6GJQsqaUBKTNV-1" vertex="1">
          <mxGeometry x="890" y="556" width="150" height="75" as="geometry" />
        </mxCell>
        <mxCell id="6ws-VXe0_fXa5yS6lifG-108" value="回寫&lt;br&gt;ERP資料" style="text;html=1;fontSize=2;" parent="WIyWlLk6GJQsqaUBKTNV-1" vertex="1">
          <mxGeometry x="820" y="516.75" width="60" height="23" as="geometry" />
        </mxCell>
        <mxCell id="6ws-VXe0_fXa5yS6lifG-111" value="" style="endArrow=none;dashed=1;html=1;fontSize=2;fontColor=#FF0000;exitX=0;exitY=0.5;exitDx=0;exitDy=0;endFill=0;startArrow=classic;startFill=1;" parent="WIyWlLk6GJQsqaUBKTNV-1" source="6ws-VXe0_fXa5yS6lifG-68" edge="1">
          <mxGeometry width="50" height="50" relative="1" as="geometry">
            <mxPoint x="750" y="626" as="sourcePoint" />
            <mxPoint x="690" y="556" as="targetPoint" />
            <Array as="points">
              <mxPoint x="690" y="630" />
            </Array>
          </mxGeometry>
        </mxCell>
        <mxCell id="6ws-VXe0_fXa5yS6lifG-127" style="edgeStyle=orthogonalEdgeStyle;rounded=0;orthogonalLoop=1;jettySize=auto;html=1;exitX=0.5;exitY=1;exitDx=0;exitDy=0;entryX=0.5;entryY=0;entryDx=0;entryDy=0;startArrow=none;startFill=0;endArrow=none;endFill=0;fontSize=2;fontColor=#FF0000;" parent="WIyWlLk6GJQsqaUBKTNV-1" source="6ws-VXe0_fXa5yS6lifG-124" target="zMW9WFN-JFGp6brwClAm-114" edge="1">
          <mxGeometry relative="1" as="geometry" />
        </mxCell>
        <mxCell id="6ws-VXe0_fXa5yS6lifG-124" value="&lt;font color=&quot;#0000ff&quot;&gt;新增資料:&lt;/font&gt;&lt;br&gt;單據號碼" style="ellipse;whiteSpace=wrap;html=1;rounded=0;shadow=0;glass=0;comic=0;fillColor=#d5e8d4;strokeColor=#82b366;" parent="WIyWlLk6GJQsqaUBKTNV-1" vertex="1">
          <mxGeometry x="750" y="165" width="60" height="60" as="geometry" />
        </mxCell>
        <mxCell id="6ws-VXe0_fXa5yS6lifG-135" value="" style="endArrow=classic;dashed=1;html=1;fontSize=2;fontColor=#FF0000;entryX=0;entryY=0.5;entryDx=0;entryDy=0;endFill=1;" parent="WIyWlLk6GJQsqaUBKTNV-1" target="zMW9WFN-JFGp6brwClAm-132" edge="1">
          <mxGeometry width="50" height="50" relative="1" as="geometry">
            <mxPoint x="336" y="503" as="sourcePoint" />
            <mxPoint x="473" y="503" as="targetPoint" />
          </mxGeometry>
        </mxCell>
      </root>
    </mxGraphModel>
  </diagram>
</mxfile>
